<svg width="192" height="132" viewBox="0 0 192 132" fill="#3F6078" xmlns="http://www.w3.org/2000/svg">
<path d="M192.622 101.069H161.736C163.592 100.451 165.445 99.7818 167.252 99.0586C179.071 94.3345 185.065 88.7816 185.065 82.553C185.065 72.9793 177.309 69.7625 170.466 66.9265C167.533 65.7111 164.503 64.4528 162.02 62.7451C160.684 61.8277 158.855 62.1656 157.938 63.5003C157.019 64.8365 157.357 66.6635 158.693 67.5824C161.684 69.6402 165.006 71.0177 168.217 72.3494C175.228 75.2558 179.194 77.1622 179.194 82.553C179.194 85.9914 174.048 90.02 165.073 93.6082C154.321 97.9059 141.842 100.234 136.734 101.069H127.121C133.705 95.9337 138.372 88.8993 141.357 79.5886C144.993 68.2566 150.176 59.9335 158.166 52.6026C160.383 50.5676 161.369 47.6949 161.023 44.9689L177.764 32.5148C178.22 32.1769 178.847 32.1647 179.325 32.4858C182.952 34.9212 186.682 35.5878 190.111 34.4121C192.816 33.4856 194.935 31.547 196.08 28.9526C197.268 26.2587 197.256 23.1123 196.043 20.3191C194.455 16.659 191.073 14.1684 187.216 13.7205C187.943 9.90596 186.578 5.93244 183.562 3.32113C181.261 1.32902 178.263 0.373482 175.335 0.700659C172.519 1.01561 170.034 2.45885 168.339 4.76132C166.191 7.68146 165.709 11.4394 166.948 15.6285C167.111 16.1804 166.912 16.7751 166.458 17.1054L149.557 29.3516C147.059 28.2065 144.022 28.286 141.417 29.7919C132.03 35.2194 122.537 37.6717 110.636 37.7466C100.416 37.8108 92.0133 40.3625 84.9484 45.5514C77.0626 51.3397 71.7773 59.695 70.0649 69.0746C68.3419 78.5183 70.438 87.8674 75.9679 95.3985C77.5105 97.4992 79.2901 99.3965 81.2624 101.069H44.0819C21.4944 96.5192 10.5141 85.2561 10.5141 66.6421C10.5141 52.4803 16.8421 37.8827 27.8774 26.592C39.8041 14.3871 55.7349 7.66617 72.7313 7.66617C92.2029 7.66617 112.445 14.7693 128.269 27.1546C129.545 28.1545 131.391 27.9282 132.389 26.6516C133.389 25.375 133.164 23.5312 131.888 22.5313C115.052 9.35403 93.4902 1.79533 72.7313 1.79533C54.1403 1.79533 36.7204 9.14458 23.6792 22.4885C11.5813 34.8662 4.64329 50.9606 4.64329 66.6421C4.64329 82.5408 11.6654 94.0623 25.5459 101.069H8.98679C4.36656 101.069 0.608612 104.827 0.608612 109.447C0.608612 114.068 4.36656 117.827 8.98679 117.827H19.6308C19.7959 117.827 19.9426 117.925 20.0053 118.078L21.869 122.64C24.0721 128.034 29.2595 131.518 35.086 131.518H166.523C172.349 131.518 177.537 128.034 179.74 122.64L181.603 118.079C181.666 117.926 181.813 117.827 181.978 117.827H192.622C197.241 117.827 201 114.068 201 109.447C201 104.829 197.242 101.069 192.622 101.069ZM169.907 21.8556C172.369 20.0637 173.442 16.8929 172.577 13.9636C172.091 12.3185 171.78 9.98851 173.068 8.23949C173.98 6.99805 175.159 6.62807 175.988 6.53481C177.295 6.38957 178.653 6.83599 179.72 7.75943C181.626 9.4106 181.79 11.6427 181.307 13.1808C180.845 14.6516 181.12 16.2706 182.044 17.5182C182.956 18.7703 184.418 19.5164 185.958 19.5164H185.959C187.572 19.5164 189.653 20.342 190.657 22.6567C191.218 23.9501 191.238 25.3827 190.708 26.5828C190.371 27.3442 189.663 28.3578 188.206 28.8578C186.153 29.561 184.022 28.5688 182.597 27.6117C180.064 25.9101 176.717 25.9835 174.265 27.7998L158.392 39.6072L153.882 33.4658L169.907 21.8556ZM80.7013 91.925C76.1361 85.7071 74.41 77.9664 75.841 70.1295C77.2827 62.2298 81.7516 55.1802 88.422 50.2833C94.4549 45.8526 101.734 43.6725 110.673 43.6174C123.65 43.5349 134.037 40.8395 144.356 34.8738C145.492 34.218 146.834 34.3143 147.688 35.0527C147.701 35.0634 147.713 35.0726 147.725 35.0833C147.843 35.1903 147.953 35.3096 148.049 35.4411L154.761 44.5837C154.854 44.7106 154.938 44.8527 155.007 45.0072C155.01 45.0133 155.013 45.0179 155.016 45.0224C155.478 46.0636 155.169 47.3845 154.195 48.2774C145.415 56.3345 139.731 65.4389 135.768 77.7952C133.037 86.3079 128.776 92.5992 122.744 97.0283C120.493 98.681 118.039 100.04 115.448 101.069H92.3879C87.7019 99.1213 83.6703 95.9688 80.7013 91.925ZM192.622 111.956H63.2095C61.5889 111.956 60.2741 113.269 60.2741 114.892C60.2741 116.512 61.5889 117.827 63.2095 117.827H175.364L174.306 120.42C173.008 123.595 169.953 125.647 166.523 125.647H35.086C31.6553 125.647 28.6006 123.595 27.3026 120.42L26.2446 117.827H49.5522C51.1728 117.827 52.4876 116.512 52.4876 114.892C52.4876 113.269 51.1728 111.956 49.5522 111.956H8.98679C7.60317 111.956 6.47945 110.831 6.47945 109.447C6.47945 108.065 7.60317 106.94 8.98679 106.94H192.622C194.004 106.94 195.129 108.065 195.129 109.447C195.129 110.831 194.004 111.956 192.622 111.956Z" fill="white"/>
</svg>
